<?xml version="1.0" encoding="UTF-8" standalone="no"?>
<!DOCTYPE svg PUBLIC "-//W3C//DTD SVG 1.1//EN" "http://www.w3.org/Graphics/SVG/1.1/DTD/svg11.dtd">
<svg width="100%" height="100%" viewBox="0 0 3508 2481" version="1.1" xmlns="http://www.w3.org/2000/svg" xmlns:xlink="http://www.w3.org/1999/xlink" xml:space="preserve" xmlns:serif="http://www.serif.com/" style="fill-rule:evenodd;clip-rule:evenodd;stroke-linejoin:round;stroke-miterlimit:2;">
    <g transform="matrix(0.773637,0,0,0.758055,-24.4188,-49.7761)">
        <g transform="matrix(0.633937,0,0,0.635722,100.829,1034.77)">
            <g transform="matrix(16.945,0,0,23.7589,-5125.22,-10224.6)">
                <path d="M326.936,451.837L352.482,451.837L352.482,448L326.936,448C321.719,448 317.5,450.61 317.5,453.82L317.5,463.72C317.5,466.931 321.719,469.54 326.936,469.54L352.482,469.54L352.482,465.703L326.936,465.703C325.17,465.703 323.735,464.808 323.735,463.72L323.735,459.653L346.246,459.653L346.246,455.815L323.735,455.815L323.735,453.82C323.735,452.733 325.17,451.837 326.936,451.837L326.936,451.837Z" style="fill:rgb(10,10,10);fill-rule:nonzero;"/>
            </g>
            <g transform="matrix(14.5051,0,0,24.0244,-3763.5,-11077.8)">
                <path d="M335.001,482.605L352.503,482.605L352.503,478.768L335.001,478.768C325.336,478.768 317.5,483.59 317.5,489.538C317.5,495.486 325.336,500.308 335.001,500.308L352.503,500.308L352.503,488.503L335.001,488.503L335.001,492.345L346.261,492.345L346.261,496.471L335.001,496.471C328.786,496.471 323.735,493.363 323.735,489.538C323.735,485.714 328.786,482.605 335.001,482.605L335.001,482.605Z" style="fill:rgb(10,10,10);fill-rule:nonzero;"/>
            </g>
            <g transform="matrix(14.8036,0,0,24.1526,-3416.09,-11885)">
                <path d="M347.988,527.229L333.334,509.538L318.68,527.229L315.5,531.079L322.504,531.079L325.705,527.229L333.334,518.006L340.962,527.229L344.164,531.079L351.168,531.079L347.988,527.229Z" style="fill:rgb(10,10,10);fill-rule:nonzero;"/>
            </g>
            <g transform="matrix(7.39907,0,0,4.93981,-6891.34,-949.216)">
                <path d="M972.284,399.68C961.234,400.085 950.14,400.609 949.675,375.21L951.029,278.994L933.163,278.994L933.163,379.839C933.163,387.313 934.354,394.348 936.498,400.589C939.535,409.996 945.888,416.832 952.26,421.403C958.212,425.672 984.026,424.241 997.458,423.696C997.458,423.696 1011.96,422.264 1025.4,410.102C1038.27,398.458 1044.9,380.69 1044.9,380.69L1050.35,386.163L1047.27,350.462L1024.5,362.092L1030.34,367.694C1030.34,367.694 1024.7,384.218 1012.09,392.593C1000.88,400.036 987.062,399.663 987.062,399.663L972.284,399.68Z" style="fill:rgb(10,10,10);fill-rule:nonzero;"/>
            </g>
            <g transform="matrix(12.1749,0,0,8.71908,-8973.5,-8520.62)">
                <path d="M885.173,1081.81C882.239,1081.24 879.908,1077.81 879.524,1073.49L879.524,1026L871.298,1026L871.298,1072.28C871.298,1075.71 871.846,1078.94 872.834,1081.81C874.232,1086.12 876.59,1089.6 879.524,1091.69C881.471,1093.11 883.665,1093.91 885.995,1093.91L909.385,1093.91L909.385,1081.81L885.173,1081.81Z" style="fill:rgb(10,10,10);fill-rule:nonzero;"/>
            </g>
        </g>
        <g transform="matrix(0.706225,0,0,0.708215,385.442,450.64)">
            <g transform="matrix(0.585517,0,0,0.585517,798.05,583.596)">
                <g transform="matrix(119.282,0,0,8.19729,-198213,-9754.2)">
                    <path d="M1671.4,1440.7L1672.87,1440.7L1672.87,1339.07C1672.87,1339.07 1671.72,1327.55 1670.95,1330.87C1670.11,1334.48 1669.8,1344.26 1669.65,1351.32L1669.5,1351.32L1669.5,1319.56L1679.19,1319.56C1679.19,1319.56 1676.83,1340.57 1676.65,1336.3C1676.1,1323.38 1674.2,1339.45 1674.2,1339.45L1674.2,1440.7L1675.67,1440.7L1675.67,1443.13L1671.4,1443.13L1671.4,1440.7Z" style="fill:rgb(10,10,10);fill-rule:nonzero;"/>
                </g>
                <g transform="matrix(11.0471,0,0,5.60766,-19784.6,-3524.07)">
                    <path d="M1966.4,844.394L2022.89,844.394L2022.89,818L1966.4,818C1954.86,818 1945.53,835.949 1945.53,858.032L1945.53,926.129C1945.53,948.211 1954.86,966.16 1966.4,966.16L2022.89,966.16L2022.89,939.767L1966.4,939.767C1962.49,939.767 1959.32,933.608 1959.32,926.129L1959.32,898.15L2009.1,898.15L2009.1,871.756L1959.32,871.756L1959.32,858.032C1959.32,850.552 1962.49,844.394 1966.4,844.394L1966.4,844.394Z" style="fill:rgb(10,10,10);fill-rule:nonzero;"/>
                </g>
            </g>
            <g transform="matrix(5.9536,0,0,3.28585,-9784.63,-1481.83)">
                <path d="M2065.5,844.394L2104.2,844.394L2104.2,818L2065.5,818C2044.12,818 2026.8,851.168 2026.8,892.08C2026.8,932.992 2044.12,966.16 2065.5,966.16L2104.2,966.16L2104.2,939.767L2065.5,939.767C2051.75,939.767 2040.59,918.387 2040.59,892.08C2040.59,865.773 2051.75,844.394 2065.5,844.394L2065.5,844.394Z" style="fill:rgb(10,10,10);fill-rule:nonzero;"/>
            </g>
            <g transform="matrix(5.47554,0,0,3.26571,-8797.7,-1463.35)">
                <path d="M2178.81,818.036L2178.81,871.748L2129.05,871.748L2129.05,818L2115.25,818L2115.25,966.072L2129.05,966.072L2129.05,898.161L2178.81,898.161L2178.81,966.116L2192.61,966.116L2192.61,818.036L2178.81,818.036Z" style="fill:rgb(10,10,10);fill-rule:nonzero;"/>
            </g>
        </g>
    </g>
    <g transform="matrix(0.805197,0,0,0.788979,645.372,388.502)">
        <g transform="matrix(14.5626,0,0,2.17136,-32488.4,-1181.07)">
            <path d="M2353.21,1015.33L2355.99,1012.45L2355.99,872.901L2353.21,870.217L2353.21,866L2362.69,866C2365.67,866 2367.89,870.025 2369.34,878.076C2370.79,886.127 2371.51,897.756 2371.51,912.964C2371.51,928.171 2370.79,939.8 2369.34,947.851C2367.89,955.902 2365.67,959.927 2362.69,959.927L2359.31,959.927L2359.31,1012.45L2362.09,1015.33L2362.09,1019.35L2353.21,1019.35L2353.21,1015.33ZM2362.27,955.327C2365.99,955.327 2367.86,942.484 2367.86,916.797L2367.86,909.13C2367.86,883.571 2365.99,870.792 2362.27,870.792L2359.31,870.792L2359.31,955.327L2362.27,955.327Z" style="fill:rgb(10,10,10);fill-rule:nonzero;"/>
        </g>
        <g transform="matrix(1.13618,0,0,1.14038,639.807,-1206.29)">
            <g>
                <g transform="matrix(13.5736,0,0,2.13872,-31012.2,-220.132)">
                    <path d="M2378.7,1021.27C2381.96,1021.27 2383.74,1009 2383.74,987.53L2383.74,916.989C2383.74,895.52 2381.96,883.252 2378.7,883.252C2375.44,883.252 2373.66,895.52 2373.66,916.989L2373.66,987.53C2373.66,1009 2375.44,1021.27 2378.7,1021.27ZM2378.7,1002.1C2377.64,1002.1 2376.98,998.456 2376.98,988.872L2376.98,915.647C2376.98,906.063 2377.64,902.421 2378.7,902.421C2379.76,902.421 2380.42,906.063 2380.42,915.647L2380.42,988.872C2380.42,998.456 2379.76,1002.1 2378.7,1002.1Z" style="fill:rgb(10,10,10);fill-rule:nonzero;"/>
                </g>
                <g transform="matrix(13.5736,0,0,2.13872,-31012.2,-220.132)">
                    <path d="M2385.98,1019.35L2394.77,1019.35L2394.77,1000.18L2389.3,1000.18L2389.3,885.169L2385.98,885.169L2385.98,1019.35Z" style="fill:rgb(10,10,10);fill-rule:nonzero;"/>
                </g>
                <g transform="matrix(13.5736,0,0,2.13872,-31012.2,-220.132)">
                    <rect x="2396.37" y="885.169" width="3.322" height="134.182" style="fill:rgb(10,10,10);fill-rule:nonzero;"/>
                </g>
                <g transform="matrix(13.5736,0,0,2.13872,-31012.2,-220.132)">
                    <path d="M2406.85,1021.27C2410.05,1021.27 2411.74,1009 2411.74,988.297L2411.74,969.32L2408.6,969.32L2408.6,989.83C2408.6,998.648 2407.94,1002.1 2406.94,1002.1C2405.94,1002.1 2405.28,998.648 2405.28,989.83L2405.28,914.88C2405.28,906.063 2405.94,902.421 2406.94,902.421C2407.94,902.421 2408.6,906.063 2408.6,914.88L2408.6,930.407L2411.74,930.407L2411.74,916.222C2411.74,895.52 2410.05,883.252 2406.85,883.252C2403.65,883.252 2401.96,895.52 2401.96,916.222L2401.96,988.297C2401.96,1009 2403.65,1021.27 2406.85,1021.27Z" style="fill:rgb(10,10,10);fill-rule:nonzero;"/>
                </g>
                <g transform="matrix(13.5736,0,0,2.13872,-31012.2,-220.132)">
                    <path d="M2416.51,1019.35L2419.84,1019.35L2419.84,962.227L2423.85,885.169L2420.62,885.169L2418.36,934.433L2418.3,934.433L2416.03,885.169L2412.5,885.169L2416.51,962.227L2416.51,1019.35Z" style="fill:rgb(10,10,10);fill-rule:nonzero;"/>
                </g>
                <g transform="matrix(13.5736,0,0,2.13872,-31012.2,-220.132)">
                    <rect x="2422.55" y="999.031" width="3.202" height="20.319" style="fill:rgb(10,10,10);fill-rule:nonzero;"/>
                </g>
                <g transform="matrix(13.5736,0,0,2.13872,-31012.2,-220.132)">
                    <path d="M2432.73,1021.27C2435.93,1021.27 2437.63,1009 2437.63,988.297L2437.63,969.32L2434.49,969.32L2434.49,989.83C2434.49,998.648 2433.82,1002.1 2432.82,1002.1C2431.83,1002.1 2431.16,998.648 2431.16,989.83L2431.16,914.88C2431.16,906.063 2431.83,902.421 2432.82,902.421C2433.82,902.421 2434.49,906.063 2434.49,914.88L2434.49,930.407L2437.63,930.407L2437.63,916.222C2437.63,895.52 2435.93,883.252 2432.73,883.252C2429.53,883.252 2427.84,895.52 2427.84,916.222L2427.84,988.297C2427.84,1009 2429.53,1021.27 2432.73,1021.27Z" style="fill:rgb(10,10,10);fill-rule:nonzero;"/>
                </g>
                <g transform="matrix(13.5736,0,0,2.13872,-31012.2,-220.132)">
                    <path d="M2444.48,1021.27C2447.74,1021.27 2449.53,1009 2449.53,987.53L2449.53,916.989C2449.53,895.52 2447.74,883.252 2444.48,883.252C2441.22,883.252 2439.44,895.52 2439.44,916.989L2439.44,987.53C2439.44,1009 2441.22,1021.27 2444.48,1021.27ZM2444.48,1002.1C2443.43,1002.1 2442.76,998.456 2442.76,988.872L2442.76,915.647C2442.76,906.063 2443.43,902.421 2444.48,902.421C2445.54,902.421 2446.2,906.063 2446.2,915.647L2446.2,988.872C2446.2,998.456 2445.54,1002.1 2444.48,1002.1Z" style="fill:rgb(10,10,10);fill-rule:nonzero;"/>
                </g>
                <g transform="matrix(13.5736,0,0,2.13872,-31012.2,-220.132)">
                    <path d="M2451.76,1019.35L2454.66,1019.35L2454.66,917.756L2454.72,917.756L2457.14,1019.35L2459.92,1019.35L2462.33,917.756L2462.39,917.756L2462.39,1019.35L2465.53,1019.35L2465.53,885.169L2460.79,885.169L2458.68,981.204L2458.62,981.204L2456.5,885.169L2451.76,885.169L2451.76,1019.35Z" style="fill:rgb(10,10,10);fill-rule:nonzero;"/>
                </g>
            </g>
        </g>
    </g>
</svg>
