<svg xmlns="http://www.w3.org/2000/svg" viewBox="0 0 168 168" id="Lawyers">
  <path fill="#0e0000" d="M24.87888,72.0137h8.127v3.999a4.02471,4.02471,0,0,0,4.041,4h3.9482V98.0332a11.532,11.532,0,0,1,3.999.8809V80.0127h6v24.167a14.22764,14.22764,0,0,1,2.0098,7.3271v4.9991a15.031,15.031,0,0,1-.1914,2.2382,9.446,9.446,0,0,1-.5352,2.2598h17.8272l1.4473-.6123c-.2696-.0371-.5049-3.0049-.5166-3.2842-.0088-.2011-.03318-.3974-.03318-.6015v-4.9991a14.22122,14.22122,0,0,1,1.99018-7.291V80.0127h3.999V99.9932a11.79965,11.79965,0,0,1,4-1.7159V80.0127h5.999V98.2744a11.79922,11.79922,0,0,1,4,1.7051V80.0127h3.9991v24.167a14.22758,14.22758,0,0,1,2.00972,7.3271v4.9991a26.57656,26.57656,0,0,1-.54982,3.8857l1.4483.6123h16.2021l1.4463-.6123a14.62958,14.62958,0,0,1-.3281-1.5127,13.49113,13.49113,0,0,1-.1875-1.7715c-.0088-.2011-.0332-.3974-.0332-.6015v-4.9991a14.22123,14.22123,0,0,1,1.9902-7.291V80.0127h5.999V98.9209a11.59172,11.59172,0,0,1,4-.8867V80.0127h3.9678a4.02593,4.02593,0,0,0,4.041-4v-3.999H143.125c1.04588,0,4.23338,0,4.79978-2.375.5635-2.3565-2.209-3.7578-3.042-4.1778l-58.4121-32.831a6.02179,6.02179,0,0,0-5.4355.0361L23.18458,65.4063c-.9092.4648-3.6748,1.872-3.1084,4.2294C20.64748,72.0137,23.833,72.0137,24.87888,72.0137Zm34.1143,7.999v36.9941h-4V80.0127Zm9.999,36.9941h-5.999V80.0127h5.999Zm35.9961-36.9941v36.9941h-5.999V80.0127Zm7.999,36.9941h-3.999V80.0127h3.999Zm17.9668-40.9941H37.00488v-3.999h93.9775Zm-48.002-39.8379a1.98127,1.98127,0,0,1,1.6124-.0312l56.705,31.871H26.69038S82.78128,36.2715,82.95208,36.1748Z" class="color2d4356 svgShape"></path>
  <path fill="#0050ff" d="M84 49.0186a6.9985 6.9985 0 107 7A7.0078 7.0078 0 0084 49.0186zm0 9.999a3.0005 3.0005 0 113-2.999A3.00305 3.00305 0 0184 59.0176zM84.54 102.0078H83.46188c-4.666 0-8.46188 4.2617-8.46188 9.499v4.9991c0 5.2373 3.79588 9.498 8.46188 9.498H84.54c4.66508 0 8.46-4.2607 8.46-9.498v-4.9991C93 106.2695 89.20508 102.0078 84.54 102.0078zM89 116.5059c0 3.0312-2.001 5.497-4.46 5.497H83.46188C81.002 122.0029 79 119.5371 79 116.5059v-4.9991c0-3.0322 2.002-5.5 4.46188-5.5H84.54c2.459 0 4.46 2.4678 4.46 5.5zM128.54 102.0078h-1.07812c-4.666 0-8.46188 4.2617-8.46188 9.499v4.9991c0 5.2373 3.79588 9.498 8.46188 9.498H128.54c4.66508 0 8.46-4.2607 8.46-9.498v-4.9991C137 106.2695 133.20508 102.0078 128.54 102.0078zM133 116.5059c0 3.0312-2.001 5.497-4.46 5.497h-1.07812c-2.45988 0-4.46188-2.4658-4.46188-5.497v-4.9991c0-3.0322 2.002-5.5 4.46188-5.5H128.54c2.459 0 4.46 2.4678 4.46 5.5zM44.501 129.291a11.51141 11.51141 0 01-3.93952.709l1.8408 8.5635-2.3906 2.6338-2.4179-2.6612L39.43458 130a11.52464 11.52464 0 01-3.9375-.7109l-1.92 8.8994a3.05879 3.05879 0 001.0323 3.0107s3.792 4.168 3.8388 4.2119a2.39634 2.39634 0 001.5879.586 2.26839 2.26839 0 001.5205-.5694c.0538-.0498 3.8565-4.2304 3.8565-4.2304a3.03616 3.03616 0 001.00292-2.9991zM39.46188 102.0078c-4.666 0-8.46188 4.2617-8.46188 9.499v4.9991c0 5.2373 3.79588 9.498 8.46188 9.498H40.54c4.66508 0 8.46-4.2607 8.46-9.498v-4.9991c0-5.2373-3.79492-9.499-8.46-9.499zM45 111.5068v4.9991c0 3.0312-2.001 5.497-4.46 5.497H39.46188C37.002 122.0029 35 119.5371 35 116.5059v-4.9991c0-3.0322 2.002-5.5 4.46188-5.5H40.54C42.999 106.0068 45 108.4746 45 111.5068z" class="color0bceb2 svgShape"></path>
  <path fill="#0e0000" d="M68.99408 54h-4a1.9995 1.9995 0 100 3.999h4a1.9995 1.9995 0 100-3.999zM103.02728 54h-4a1.9995 1.9995 0 100 3.999h4a1.9995 1.9995 0 100-3.999z" class="color2d4356 svgShape"></path>
  <path fill="#0050ff" d="M88.501 129.291a11.51142 11.51142 0 01-3.93952.709l1.8408 8.5635-2.3906 2.6338-2.4179-2.6612L83.43458 130a11.52464 11.52464 0 01-3.9375-.7109l-1.92 8.8994a3.05879 3.05879 0 001.0323 3.0107s3.792 4.168 3.8388 4.2119a2.39634 2.39634 0 001.5879.586 2.26839 2.26839 0 001.5205-.5694c.0538-.0498 3.8565-4.2304 3.8565-4.2304a3.03616 3.03616 0 001.00292-2.9991zM132.501 129.291a11.51143 11.51143 0 01-3.93952.709l1.8408 8.5635-2.3906 2.6338-2.4179-2.6612L127.43458 130a11.52464 11.52464 0 01-3.9375-.7109l-1.92 8.8994a3.05879 3.05879 0 001.0323 3.0107s3.792 4.168 3.8388 4.2119a2.39634 2.39634 0 001.5879.586 2.26839 2.26839 0 001.5205-.5694c.0538-.0498 3.8565-4.2304 3.8565-4.2304a3.03616 3.03616 0 001.00292-2.9991z" class="color0bceb2 svgShape"></path>
  <path fill="#0e0000" d="M90 23.43681a3 3 0 10-3-3A3.00344 3.00344 0 0090 23.43681zm0-4.5a1.5 1.5 0 11-1.5 1.5A1.50148 1.50148 0 0190 18.93681zM125.05778 9.94658a2 2 0 102 2A2.00229 2.00229 0 00125.05778 9.94658zm0 3a1 1 0 111-1A1.001 1.001 0 01125.05778 12.94658zM61.55342 5a2 2 0 102 2A2.00229 2.00229 0 0061.55342 5zm0 3a1 1 0 111-1A1.001 1.001 0 0161.55342 8zM129.05778 36.74648a2 2 0 102 2A2.00229 2.00229 0 00129.05778 36.74648zm0 3a1 1 0 111-1A1.001 1.001 0 01129.05778 39.74648zM17.05778 60.94658a2 2 0 10-2 2A2.00229 2.00229 0 0017.05778 60.94658zm-3 0a1 1 0 111 1A1.001 1.001 0 0114.05778 60.94658z" class="color2d4356 svgShape"></path>
  <polygon fill="#0050ff" points="45.641 30.958 47.128 29.002 46.189 28.47 45.235 30.66 45.203 30.66 44.233 28.486 43.278 29.034 44.749 30.943 44.749 30.974 42.448 30.676 42.448 31.74 44.764 31.443 44.764 31.474 43.278 33.383 44.169 33.947 45.187 31.74 45.218 31.74 46.157 33.931 47.143 33.368 45.641 31.49 45.641 31.459 48.003 31.74 48.003 30.676 45.641 30.989 45.641 30.958" class="color0bceb2 svgShape"></polygon>
  <polygon fill="#0050ff" points="8.834 19.013 7.978 20.112 8.492 20.437 9.078 19.166 9.095 19.166 9.636 20.428 10.204 20.103 9.339 19.022 9.339 19.004 10.699 19.166 10.699 18.554 9.339 18.734 9.339 18.716 10.195 17.59 9.655 17.283 9.105 18.544 9.087 18.544 8.528 17.292 7.978 17.607 8.826 18.707 8.826 18.725 7.501 18.554 7.501 19.166 8.834 18.995 8.834 19.013" class="color0bceb2 svgShape"></polygon>
  <polygon fill="#0050ff" points="159.058 51.66 159.058 50.617 156.741 50.923 156.741 50.893 158.199 48.975 157.278 48.453 156.342 50.601 156.311 50.601 155.36 48.468 154.423 49.005 155.866 50.878 155.866 50.908 153.609 50.617 153.609 51.66 155.881 51.369 155.881 51.399 154.423 53.271 155.298 53.824 156.296 51.66 156.326 51.66 157.247 53.809 158.214 53.256 156.741 51.414 156.741 51.384 159.058 51.66" class="color0bceb2 svgShape"></polygon>
  <polygon fill="#0050ff" points="158.501 9.532 159.759 7.878 158.965 7.428 158.157 9.281 158.13 9.281 157.31 7.441 156.501 7.904 157.746 9.519 157.746 9.546 155.8 9.294 155.8 10.194 157.759 9.943 157.759 9.969 156.501 11.584 157.256 12.061 158.117 10.194 158.143 10.194 158.938 12.048 159.772 11.571 158.501 9.982 158.501 9.956 160.499 10.194 160.499 9.294 158.501 9.559 158.501 9.532" class="color0bceb2 svgShape"></polygon>
  <circle cx="2" cy="147" r="2" fill="#0e0000" class="color2d4356 svgShape"></circle>
  <path fill="#0e0000" d="M11 145H8a2 2 0 000 4h3a2 2 0 000-4zM160 145h-3a2 2 0 000 4h3a2 2 0 000-4z" class="color2d4356 svgShape"></path>
  <circle cx="166" cy="147" r="2" fill="#0e0000" class="color2d4356 svgShape"></circle>
  <path fill="#0050ff" d="M118.15387 153h-8.30774a2.00641 2.00641 0 000 4h8.30774a2.00641 2.00641 0 000-4zM58.15387 153H49.84613a2.00641 2.00641 0 000 4h8.30774a2.00641 2.00641 0 000-4zM104 153H64a2 2 0 000 4H79.94v2H72a2 2 0 000 4H97a2 2 0 000-4H88.06v-2H104a2 2 0 000-4z" class="color0bceb2 svgShape"></path>
  <path fill="#0e0000" d="M150.72131,145h-2.72144c-.00024-2.94928-.00122-11.44177-.00281-11.47174-.295-5.31537-5.09961-7.74115-5.30469-7.8418-.0332-.0166-3.832-1.62787-3.832-1.62787a13.18576,13.18576,0,0,1-2.78125,3.168L140.958,129.292a5.90139,5.90139,0,0,1,3.042,4.4043V145H112V133.69629a5.82526,5.82526,0,0,1,3.04-4.40332l4.8819-2.06641a13.14776,13.14776,0,0,1-2.78131-3.168s-3.7998,1.61127-3.833,1.62787c-.20508.10065-5.0097,2.52643-5.30469,7.8418-.00159.03-.0025,8.52246-.00275,11.47174h-4.00024c-.00024-2.94928-.00122-11.44177-.00281-11.47174-.295-5.31537-5.09961-7.74115-5.30469-7.8418-.0332-.0166-3.832-1.62787-3.832-1.62787a13.18732,13.18732,0,0,1-2.78131,3.168L96.958,129.292a5.90139,5.90139,0,0,1,3.042,4.4043V145H68V133.69629a5.82526,5.82526,0,0,1,3.04-4.40332l4.8819-2.06641a13.14776,13.14776,0,0,1-2.78131-3.168s-3.7998,1.61127-3.833,1.62787c-.20508.10065-5.00964,2.52643-5.30469,7.8418-.00159.03-.0025,8.52246-.00275,11.47174H59.99988c-.00024-2.94928-.00122-11.44177-.00281-11.47174-.295-5.31537-5.09961-7.74115-5.30469-7.8418-.0332-.0166-3.832-1.62787-3.832-1.62787a13.18732,13.18732,0,0,1-2.78131,3.168L52.958,129.292A5.90139,5.90139,0,0,1,56,133.69629V145H24V133.69629a5.82526,5.82526,0,0,1,3.04-4.40332l4.8819-2.06641a13.14776,13.14776,0,0,1-2.78131-3.168s-3.7998,1.61127-3.833,1.62787c-.20508.10065-5.00964,2.52643-5.30469,7.8418-.00159.03-.0025,8.52246-.00275,11.47174H17.27869a2.017,2.017,0,1,0,0,4H150.72131a2.017,2.017,0,1,0,0-4Z" class="color2d4356 svgShape"></path>
</svg>
